<svg width="800" height="800" viewBox="0 0 800 800" fill="none" xmlns="http://www.w3.org/2000/svg">
    <rect width="800" height="800" rx="400" fill="url(#paint0_linear_157_2)" />
    <path
        d="M410.881 743.044C411.709 743.017 412.402 743.667 412.429 744.495C412.455 745.323 411.805 746.015 410.978 746.042C407.204 746.164 403.415 746.225 399.612 746.225C395.81 746.225 392.021 746.164 388.248 746.042C387.42 746.015 386.771 745.323 386.797 744.495C386.824 743.667 387.517 743.017 388.345 743.044C392.086 743.164 395.842 743.225 399.612 743.225C403.383 743.225 407.14 743.164 410.881 743.044ZM341.891 739.923C342.025 739.105 342.796 738.551 343.613 738.685C350.972 739.891 358.41 740.863 365.918 741.594C366.742 741.674 367.346 742.408 367.266 743.232C367.185 744.057 366.451 744.66 365.627 744.58C358.053 743.843 350.551 742.862 343.128 741.646C342.311 741.512 341.757 740.74 341.891 739.923ZM455.612 738.685C456.43 738.551 457.201 739.105 457.335 739.923C457.469 740.74 456.915 741.511 456.098 741.646C448.674 742.862 441.171 743.843 433.598 744.58C432.773 744.66 432.04 744.057 431.96 743.232C431.88 742.408 432.483 741.674 433.308 741.594C440.816 740.863 448.254 739.891 455.612 738.685ZM297.962 729.515C298.202 728.722 299.04 728.274 299.833 728.514C306.976 730.678 314.218 732.616 321.55 734.319C322.357 734.507 322.858 735.313 322.671 736.12C322.483 736.927 321.678 737.428 320.871 737.241C313.475 735.523 306.169 733.569 298.963 731.386C298.17 731.145 297.722 730.307 297.962 729.515ZM499.393 728.514C500.185 728.274 501.022 728.722 501.263 729.515C501.503 730.307 501.055 731.144 500.263 731.385C493.057 733.568 485.751 735.523 478.354 737.241C477.548 737.428 476.741 736.927 476.554 736.12C476.366 735.313 476.869 734.507 477.676 734.319C485.007 732.616 492.249 730.678 499.393 728.514ZM541.461 712.673C542.215 712.33 543.105 712.665 543.447 713.419C543.789 714.173 543.455 715.062 542.701 715.404C535.832 718.522 528.844 721.421 521.744 724.095C520.969 724.387 520.104 723.995 519.812 723.22C519.52 722.445 519.912 721.58 520.687 721.288C527.724 718.638 534.652 715.763 541.461 712.673ZM255.778 713.419C256.121 712.665 257.009 712.331 257.764 712.673C264.573 715.763 271.5 718.638 278.538 721.288C279.313 721.58 279.705 722.444 279.413 723.22C279.121 723.995 278.257 724.387 277.481 724.095C270.382 721.421 263.393 718.522 256.524 715.404C255.77 715.062 255.436 714.173 255.778 713.419ZM216.075 691.932C216.513 691.229 217.439 691.013 218.142 691.451C224.494 695.41 230.986 699.167 237.607 702.714C238.337 703.105 238.612 704.014 238.221 704.744C237.829 705.474 236.921 705.75 236.19 705.358C229.511 701.781 222.963 697.991 216.555 693.998C215.852 693.56 215.637 692.635 216.075 691.932ZM581.084 691.451C581.787 691.013 582.712 691.229 583.15 691.932C583.588 692.635 583.373 693.56 582.67 693.998C576.262 697.991 569.713 701.781 563.034 705.358C562.304 705.749 561.395 705.474 561.004 704.744C560.613 704.014 560.888 703.105 561.618 702.714C568.239 699.168 574.731 695.41 581.084 691.451ZM179.513 665.446C180.039 664.806 180.984 664.714 181.624 665.239C187.412 669.995 193.359 674.565 199.454 678.94C200.127 679.424 200.281 680.361 199.798 681.034C199.315 681.707 198.378 681.861 197.705 681.378C191.557 676.964 185.558 672.355 179.72 667.558C179.08 667.032 178.987 666.086 179.513 665.446ZM617.601 665.239C618.241 664.713 619.186 664.806 619.712 665.446C620.238 666.086 620.145 667.032 619.505 667.558C613.667 672.354 607.669 676.964 601.521 681.378C600.848 681.861 599.91 681.707 599.427 681.034C598.944 680.361 599.098 679.424 599.771 678.94C605.866 674.565 611.813 669.995 617.601 665.239ZM146.7 634.435C147.305 633.868 148.254 633.899 148.82 634.503C153.947 639.974 159.25 645.278 164.722 650.404C165.326 650.971 165.357 651.921 164.791 652.525C164.225 653.13 163.275 653.16 162.671 652.594C157.152 647.423 151.802 642.074 146.631 636.555C146.065 635.95 146.096 635.001 146.7 634.435ZM650.404 634.503C650.971 633.898 651.921 633.868 652.525 634.435C653.129 635.001 653.16 635.95 652.594 636.555C647.423 642.073 642.073 647.423 636.555 652.594C635.95 653.16 635.001 653.129 634.435 652.525C633.868 651.921 633.899 650.972 634.503 650.405C639.974 645.279 645.278 639.974 650.404 634.503ZM118.191 599.427C118.864 598.944 119.801 599.098 120.284 599.771C124.66 605.866 129.23 611.813 133.985 617.601C134.511 618.241 134.419 619.186 133.779 619.712C133.139 620.238 132.194 620.145 131.668 619.505C126.871 613.667 122.261 607.669 117.848 601.521C117.365 600.848 117.519 599.91 118.191 599.427ZM678.94 599.771C679.424 599.098 680.361 598.944 681.034 599.427C681.707 599.91 681.861 600.848 681.378 601.521C676.964 607.669 672.354 613.667 667.558 619.505C667.032 620.145 666.086 620.238 665.446 619.712C664.806 619.186 664.714 618.241 665.239 617.601C669.995 611.813 674.565 605.866 678.94 599.771ZM94.4805 561.004C95.2107 560.613 96.1206 560.888 96.5117 561.618C100.058 568.239 103.815 574.731 107.773 581.084C108.211 581.787 107.997 582.712 107.294 583.15C106.591 583.588 105.666 583.373 105.228 582.67C101.234 576.262 97.4446 569.713 93.8672 563.034C93.4763 562.304 93.7506 561.395 94.4805 561.004ZM702.714 561.618C703.105 560.888 704.014 560.613 704.744 561.004C705.474 561.395 705.749 562.304 705.358 563.034C701.781 569.713 697.991 576.262 693.998 582.67C693.56 583.373 692.635 583.588 691.932 583.15C691.229 582.712 691.014 581.787 691.451 581.084C695.41 574.731 699.167 568.239 702.714 561.618ZM76.0049 519.812C76.7801 519.52 77.6455 519.911 77.9375 520.687C80.5876 527.724 83.4626 534.652 86.5527 541.461C86.895 542.215 86.5608 543.105 85.8066 543.447C85.0524 543.789 84.1627 543.455 83.8203 542.701C80.7031 535.832 77.8033 528.844 75.1299 521.744C74.838 520.969 75.2298 520.104 76.0049 519.812ZM721.288 520.687C721.58 519.912 722.445 519.52 723.22 519.812C723.995 520.103 724.387 520.969 724.095 521.744C721.421 528.843 718.522 535.832 715.404 542.701C715.062 543.455 714.173 543.789 713.419 543.447C712.665 543.105 712.331 542.215 712.673 541.461C715.763 534.652 718.638 527.724 721.288 520.687ZM63.1055 476.554C63.9123 476.366 64.7178 476.869 64.9053 477.676C66.6084 485.007 68.5467 492.249 70.7109 499.393C70.9509 500.185 70.5027 501.023 69.71 501.263C68.9174 501.503 68.0802 501.055 67.8398 500.263C65.6566 493.057 63.7015 485.751 61.9834 478.354C61.796 477.548 62.2987 476.741 63.1055 476.554ZM734.319 477.676C734.507 476.869 735.313 476.366 736.12 476.554C736.927 476.741 737.429 477.548 737.241 478.354C735.523 485.751 733.569 493.057 731.386 500.263C731.145 501.055 730.307 501.503 729.515 501.263C728.722 501.022 728.274 500.185 728.514 499.393C730.678 492.249 732.616 485.007 734.319 477.676ZM236.2 307C246.472 307 254.8 315.327 254.8 325.6C254.8 335.872 263.128 344.2 273.4 344.2C283.673 344.2 292 352.528 292 362.8C292 373.072 283.673 381.4 273.4 381.4C263.128 381.4 254.8 373.072 254.8 362.8C254.8 352.527 246.473 344.2 236.2 344.2H161.8C151.527 344.2 143.2 352.527 143.2 362.8V437.2C143.2 447.473 151.527 455.8 161.8 455.8H236.2C246.473 455.8 254.8 447.473 254.8 437.2C254.8 426.928 263.128 418.6 273.4 418.6C283.673 418.6 292 426.928 292 437.2C292 447.472 283.673 455.8 273.4 455.8C263.128 455.8 254.8 464.128 254.8 474.4C254.8 484.673 246.472 493 236.2 493H161.8C151.528 493 143.2 484.673 143.2 474.4C143.2 464.128 134.872 455.8 124.6 455.8C114.327 455.8 106 447.472 106 437.2V362.8C106 352.528 114.327 344.2 124.6 344.2C134.872 344.2 143.2 335.872 143.2 325.6C143.2 315.327 151.528 307 161.8 307H236.2ZM438.2 307C448.472 307 456.8 315.327 456.8 325.6C456.8 335.872 465.128 344.2 475.4 344.2C485.673 344.2 494 352.528 494 362.8V437.2C494 447.472 485.673 455.8 475.4 455.8C465.128 455.8 456.8 464.128 456.8 474.4C456.8 484.673 448.472 493 438.2 493C427.928 493 419.6 484.673 419.6 474.4C419.6 464.128 411.272 455.8 401 455.8C390.728 455.8 382.4 464.128 382.4 474.4C382.4 484.673 374.072 493 363.8 493C353.528 493 345.2 484.673 345.2 474.4C345.2 464.128 336.872 455.8 326.6 455.8C316.327 455.8 308 447.472 308 437.2V362.8C308 352.528 316.327 344.2 326.6 344.2C336.872 344.2 345.2 335.872 345.2 325.6C345.2 315.327 353.528 307 363.8 307C374.072 307 382.4 315.327 382.4 325.6C382.4 335.872 374.072 344.2 363.8 344.2C353.527 344.2 345.2 352.527 345.2 362.8V437.2C345.2 447.473 353.527 455.8 363.8 455.8C374.072 455.8 382.4 447.473 382.4 437.2V400C382.4 389.728 390.728 381.4 401 381.4C411.272 381.4 419.6 389.728 419.6 400V437.2C419.6 447.473 427.928 455.8 438.2 455.8C448.473 455.8 456.8 447.473 456.8 437.2V362.8C456.8 352.527 448.473 344.2 438.2 344.2C427.928 344.2 419.6 335.872 419.6 325.6C419.6 315.327 427.928 307 438.2 307ZM639.2 307C649.472 307 657.8 315.327 657.8 325.6C657.8 335.872 666.128 344.2 676.4 344.2C686.673 344.2 695 352.528 695 362.8V437.2C695 447.472 686.673 455.8 676.4 455.8C666.128 455.8 657.8 464.128 657.8 474.4C657.8 484.673 649.472 493 639.2 493C628.928 493 620.6 484.673 620.6 474.4C620.6 464.128 628.928 455.8 639.2 455.8C649.473 455.8 657.8 447.473 657.8 437.2V362.8C657.8 352.527 649.473 344.2 639.2 344.2C628.928 344.2 620.6 352.527 620.6 362.8V400C620.6 410.272 612.272 418.6 602 418.6C591.728 418.6 583.4 410.272 583.4 400V362.8C583.4 352.527 575.072 344.2 564.8 344.2C554.527 344.2 546.2 352.527 546.2 362.8V437.2C546.2 447.473 554.527 455.8 564.8 455.8C575.072 455.8 583.4 464.128 583.4 474.4C583.4 484.673 575.072 493 564.8 493C554.528 493 546.2 484.673 546.2 474.4C546.2 464.128 537.872 455.8 527.6 455.8C517.327 455.8 509 447.472 509 437.2V362.8C509 352.528 517.327 344.2 527.6 344.2C537.872 344.2 546.2 335.872 546.2 325.6C546.2 315.327 554.528 307 564.8 307C575.072 307 583.4 315.327 583.4 325.6C583.4 335.872 591.728 344.2 602 344.2C612.272 344.2 620.6 335.872 620.6 325.6C620.6 315.327 628.928 307 639.2 307ZM55.9932 431.96C56.8175 431.88 57.5506 432.483 57.6309 433.308C58.3616 440.816 59.3339 448.254 60.54 455.612C60.6738 456.43 60.12 457.201 59.3027 457.335C58.4855 457.469 57.7143 456.915 57.5801 456.098C56.3634 448.674 55.3826 441.171 54.6455 433.598C54.5654 432.773 55.1688 432.04 55.9932 431.96ZM743.232 431.96C744.057 432.04 744.66 432.773 744.58 433.598C743.843 441.171 742.862 448.675 741.646 456.098C741.511 456.915 740.74 457.469 739.923 457.335C739.106 457.201 738.551 456.43 738.685 455.612C739.891 448.254 740.863 440.816 741.594 433.308C741.674 432.483 742.408 431.88 743.232 431.96ZM54.7305 386.797C55.5584 386.824 56.2083 387.517 56.1816 388.345C56.0611 392.086 56 395.842 56 399.612C56 403.383 56.0611 407.14 56.1816 410.881C56.2081 411.709 55.5583 412.402 54.7305 412.429C53.9027 412.455 53.2095 411.805 53.1826 410.978C53.0611 407.204 53 403.415 53 399.612C53 395.81 53.0611 392.021 53.1826 388.248C53.2093 387.42 53.9025 386.77 54.7305 386.797ZM744.495 386.797C745.323 386.77 746.015 387.42 746.042 388.248C746.164 392.021 746.225 395.81 746.225 399.612C746.225 403.415 746.164 407.204 746.042 410.978C746.015 411.805 745.323 412.454 744.495 412.428C743.667 412.401 743.018 411.709 743.044 410.881C743.164 407.14 743.225 403.383 743.225 399.612C743.225 395.842 743.164 392.086 743.044 388.345C743.017 387.517 743.667 386.824 744.495 386.797ZM57.5801 343.128C57.7141 342.31 58.4853 341.757 59.3027 341.891C60.1201 342.025 60.674 342.796 60.54 343.613C59.3339 350.972 58.3616 358.41 57.6309 365.918C57.5505 366.742 56.8174 367.346 55.9932 367.266C55.1688 367.185 54.5654 366.451 54.6455 365.627C55.3826 358.053 56.3634 350.551 57.5801 343.128ZM739.923 341.89C740.74 341.756 741.512 342.311 741.646 343.128C742.862 350.551 743.843 358.053 744.58 365.627C744.66 366.451 744.057 367.185 743.232 367.266C742.408 367.346 741.674 366.742 741.594 365.918C740.863 358.41 739.891 350.972 738.685 343.613C738.551 342.796 739.105 342.024 739.923 341.89ZM67.8398 298.963C68.08 298.17 68.9173 297.722 69.71 297.962C70.5028 298.202 70.9511 299.04 70.7109 299.833C68.5468 306.976 66.6084 314.218 64.9053 321.55C64.7176 322.356 63.9121 322.858 63.1055 322.671C62.2988 322.483 61.7963 321.678 61.9834 320.871C63.7015 313.475 65.6566 306.169 67.8398 298.963ZM729.515 297.962C730.307 297.722 731.145 298.17 731.385 298.963C733.568 306.169 735.523 313.475 737.241 320.871C737.428 321.678 736.927 322.483 736.12 322.671C735.313 322.858 734.507 322.356 734.319 321.55C732.616 314.218 730.678 306.976 728.514 299.833C728.273 299.04 728.722 298.202 729.515 297.962ZM83.8203 256.524C84.1627 255.77 85.0523 255.436 85.8066 255.778C86.5606 256.121 86.8948 257.009 86.5527 257.764C83.4626 264.573 80.5876 271.501 77.9375 278.538C77.6455 279.313 76.7801 279.705 76.0049 279.413C75.23 279.121 74.8384 278.256 75.1299 277.481C77.8033 270.382 80.7031 263.393 83.8203 256.524ZM713.419 255.778C714.173 255.436 715.062 255.77 715.404 256.524C718.522 263.393 721.421 270.382 724.095 277.481C724.386 278.257 723.995 279.121 723.22 279.413C722.445 279.705 721.58 279.313 721.288 278.538C718.638 271.5 715.763 264.573 712.673 257.764C712.331 257.009 712.665 256.121 713.419 255.778ZM105.228 216.555C105.666 215.852 106.591 215.637 107.294 216.075C107.997 216.513 108.212 217.439 107.773 218.142C103.815 224.494 100.058 230.986 96.5117 237.607C96.1204 238.337 95.2106 238.612 94.4805 238.221C93.7506 237.829 93.4763 236.921 93.8672 236.19C97.4446 229.511 101.234 222.963 105.228 216.555ZM691.932 216.075C692.635 215.637 693.56 215.852 693.998 216.555C697.991 222.963 701.781 229.511 705.358 236.19C705.749 236.921 705.474 237.83 704.744 238.221C704.014 238.612 703.105 238.337 702.714 237.606C699.168 230.985 695.41 224.494 691.451 218.142C691.013 217.439 691.229 216.513 691.932 216.075ZM665.446 179.513C666.086 178.987 667.032 179.08 667.558 179.72C672.355 185.558 676.964 191.557 681.378 197.705C681.861 198.378 681.707 199.315 681.034 199.798C680.361 200.281 679.423 200.127 678.94 199.454C674.565 193.359 669.995 187.412 665.239 181.624C664.714 180.984 664.806 180.039 665.446 179.513ZM131.668 179.72C132.194 179.08 133.139 178.987 133.779 179.513C134.419 180.039 134.511 180.984 133.985 181.624C129.23 187.412 124.66 193.359 120.284 199.454C119.801 200.127 118.864 200.281 118.191 199.798C117.519 199.315 117.365 198.378 117.848 197.705C122.261 191.557 126.871 185.558 131.668 179.72ZM162.671 146.631C163.275 146.065 164.225 146.096 164.791 146.7C165.357 147.305 165.326 148.254 164.722 148.82C159.25 153.947 153.947 159.25 148.82 164.722C148.254 165.326 147.305 165.357 146.7 164.791C146.096 164.225 146.065 163.275 146.631 162.671C151.802 157.152 157.152 151.802 162.671 146.631ZM634.435 146.7C635.001 146.096 635.95 146.064 636.555 146.631C642.074 151.802 647.423 157.152 652.594 162.671C653.16 163.275 653.13 164.225 652.525 164.791C651.921 165.357 650.972 165.326 650.405 164.722C645.279 159.25 639.974 153.947 634.503 148.82C633.899 148.254 633.868 147.305 634.435 146.7ZM197.705 117.848C198.378 117.365 199.315 117.518 199.798 118.191C200.281 118.864 200.127 119.801 199.454 120.284C193.359 124.66 187.412 129.23 181.624 133.985C180.984 134.511 180.039 134.419 179.513 133.779C178.987 133.139 179.08 132.194 179.72 131.668C185.558 126.871 191.557 122.261 197.705 117.848ZM599.427 118.191C599.91 117.518 600.848 117.365 601.521 117.848C607.669 122.261 613.667 126.871 619.505 131.668C620.145 132.194 620.238 133.139 619.712 133.779C619.186 134.419 618.241 134.511 617.601 133.985C611.813 129.23 605.866 124.66 599.771 120.284C599.098 119.801 598.944 118.864 599.427 118.191ZM236.19 93.8672C236.921 93.4761 237.829 93.7505 238.221 94.4805C238.612 95.2107 238.337 96.1206 237.606 96.5117C230.986 100.058 224.494 103.815 218.142 107.773C217.439 108.211 216.513 107.997 216.075 107.294C215.637 106.591 215.852 105.666 216.555 105.228C222.963 101.234 229.511 97.4446 236.19 93.8672ZM561.004 94.4805C561.395 93.7504 562.304 93.4762 563.034 93.8672C569.713 97.4446 576.262 101.234 582.67 105.228C583.373 105.666 583.588 106.591 583.15 107.294C582.712 107.997 581.787 108.211 581.084 107.773C574.731 103.815 568.239 100.058 561.618 96.5117C560.888 96.1206 560.613 95.2107 561.004 94.4805ZM277.481 75.1299C278.257 74.8382 279.121 75.2299 279.413 76.0049C279.705 76.7801 279.313 77.6456 278.538 77.9375C271.501 80.5876 264.573 83.4626 257.764 86.5527C257.01 86.8947 256.121 86.5605 255.778 85.8066C255.436 85.0523 255.77 84.1627 256.524 83.8203C263.393 80.7031 270.382 77.8033 277.481 75.1299ZM519.812 76.0049C520.104 75.2297 520.969 74.838 521.744 75.1299C528.844 77.8033 535.832 80.7031 542.701 83.8203C543.456 84.1627 543.79 85.0523 543.447 85.8066C543.105 86.5607 542.215 86.895 541.461 86.5527C534.652 83.4626 527.724 80.5877 520.687 77.9375C519.911 77.6455 519.52 76.78 519.812 76.0049ZM320.871 61.9834C321.678 61.7962 322.483 62.2987 322.671 63.1055C322.858 63.9121 322.356 64.7177 321.55 64.9053C314.218 66.6084 306.976 68.5468 299.833 70.7109C299.04 70.951 298.202 70.5026 297.962 69.71C297.722 68.9173 298.17 68.0801 298.963 67.8398C306.169 65.6566 313.475 63.7015 320.871 61.9834ZM476.554 63.1055C476.741 62.2986 477.548 61.796 478.354 61.9834C485.751 63.7015 493.057 65.6566 500.263 67.8398C501.055 68.0802 501.503 68.9174 501.263 69.71C501.022 70.5026 500.185 70.951 499.393 70.7109C492.249 68.5467 485.007 66.6084 477.676 64.9053C476.869 64.7178 476.367 63.9122 476.554 63.1055ZM365.627 54.6455C366.452 54.5653 367.185 55.1686 367.266 55.9932C367.345 56.8174 366.742 57.5505 365.918 57.6309C358.41 58.3616 350.972 59.3339 343.613 60.54C342.796 60.6739 342.024 60.12 341.89 59.3027C341.756 58.4853 342.311 57.7142 343.128 57.5801C350.551 56.3634 358.053 55.3826 365.627 54.6455ZM433.598 54.6455C441.171 55.3826 448.674 56.3634 456.098 57.5801C456.915 57.7143 457.469 58.4854 457.335 59.3027C457.201 60.1199 456.43 60.6738 455.612 60.54C448.254 59.3339 440.816 58.3616 433.308 57.6309C432.483 57.5506 431.88 56.8174 431.96 55.9932C432.04 55.1687 432.773 54.5654 433.598 54.6455ZM399.612 53C403.415 53 407.204 53.0611 410.978 53.1826C411.805 53.2095 412.454 53.9026 412.428 54.7305C412.401 55.5582 411.709 56.2081 410.881 56.1816C407.14 56.0611 403.383 56 399.612 56C395.842 56 392.086 56.0611 388.345 56.1816C387.517 56.2082 386.824 55.5582 386.797 54.7305C386.77 53.9025 387.42 53.2094 388.248 53.1826C392.021 53.0611 395.81 53 399.612 53Z"
        fill="white" />
    <defs>
        <linearGradient id="paint0_linear_157_2" x1="0" y1="400" x2="800" y2="400" gradientUnits="userSpaceOnUse">
            <stop stop-color="#0497FE" />
            <stop offset="0.49771" stop-color="#0563FF" />
            <stop offset="1" stop-color="#0648FF" />
        </linearGradient>
    </defs>
</svg>